<svg width="100" height="100" viewBox="0 0 100 100" fill="none" xmlns="http://www.w3.org/2000/svg">
<path fill-rule="evenodd" clip-rule="evenodd" d="M50 100C77.6142 100 100 77.6142 100 50C100 22.3858 77.6142 0 50 0C22.3858 0 0 22.3858 0 50C0 77.6142 22.3858 100 50 100ZM79.9842 27.9223C79.2203 27.5664 78.3759 27.3504 77.474 27.3504H22.526C21.6241 27.3504 20.7797 27.5664 20.0158 27.9223L45.8573 52.9601C48.1422 55.1852 51.8578 55.1852 54.1427 52.9601L79.9842 27.9223ZM82.7461 30.6118L62.5275 50.174L82.7461 69.7362C83.1116 68.9923 83.3333 68.1699 83.3333 67.2917V33.0563C83.3333 32.178 83.1116 31.3557 82.7461 30.6118ZM16.6667 33.0563C16.6667 32.178 16.8884 31.3557 17.2539 30.6118L37.4725 50.174L17.2539 69.7362C16.8884 68.9924 16.6667 68.17 16.6667 67.2917V33.0563ZM59.7656 52.8635L56.9046 55.6496C53.0974 59.357 46.9025 59.357 43.0953 55.6496L40.2344 52.8635L20.0158 72.4257C20.7797 72.7816 21.6241 72.9975 22.526 72.9975H77.474C78.3759 72.9975 79.2203 72.7816 79.9842 72.4257L59.7656 52.8635Z" fill="white"/>
</svg>
