<svg width="30" height="30" viewBox="0 0 30 30" fill="none" xmlns="http://www.w3.org/2000/svg">
<path fill-rule="evenodd" clip-rule="evenodd" d="M5 0C2.23858 0 0 2.23858 0 5V25C0 27.7614 2.23858 30 5 30H25C27.7614 30 30 27.7614 30 25V5C30 2.23858 27.7614 0 25 0H5ZM16.1023 15.3636H13.6705V23.4773C13.6705 23.8485 13.6155 24.161 13.5057 24.4148C13.3958 24.6686 13.2348 24.8617 13.0227 24.9943C12.8144 25.1231 12.5587 25.1875 12.2557 25.1875C11.9678 25.1875 11.7178 25.1307 11.5057 25.017C11.2973 24.8996 11.1326 24.733 11.0114 24.517C10.8939 24.2973 10.8314 24.0341 10.8239 23.7273H8.375C8.37121 24.5 8.53598 25.142 8.86932 25.6534C9.20265 26.161 9.65341 26.5398 10.2216 26.7898C10.7936 27.036 11.4299 27.1591 12.1307 27.1591C12.9186 27.1591 13.6098 27.0095 14.2045 26.7102C14.7992 26.411 15.2633 25.9848 15.5966 25.4318C15.9337 24.8788 16.1023 24.2273 16.1023 23.4773V15.3636ZM23.8636 17.642C24.2083 17.8958 24.4034 18.2519 24.4489 18.7102H26.8068C26.7955 18.017 26.6098 17.4072 26.25 16.8807C25.8902 16.3542 25.3864 15.9432 24.7386 15.6477C24.0947 15.3523 23.3409 15.2045 22.4773 15.2045C21.6288 15.2045 20.8712 15.3523 20.2045 15.6477C19.5379 15.9432 19.0133 16.3542 18.6307 16.8807C18.2519 17.4072 18.0644 18.0227 18.0682 18.7273C18.0644 19.5871 18.3466 20.2708 18.9148 20.7784C19.483 21.286 20.2576 21.6591 21.2386 21.8977L22.5057 22.2159C22.9299 22.3182 23.2879 22.4318 23.5795 22.5568C23.875 22.6818 24.0985 22.8333 24.25 23.0114C24.4053 23.1894 24.483 23.4091 24.483 23.6705C24.483 23.9508 24.3977 24.1989 24.2273 24.4148C24.0568 24.6307 23.8163 24.7992 23.5057 24.9205C23.1989 25.0417 22.8371 25.1023 22.4205 25.1023C21.9962 25.1023 21.6155 25.0379 21.2784 24.9091C20.9451 24.7765 20.678 24.5814 20.4773 24.3239C20.2803 24.0625 20.1686 23.7367 20.142 23.3466H17.7614C17.7803 24.1837 17.983 24.8864 18.3693 25.4545C18.7595 26.0189 19.3011 26.4451 19.9943 26.733C20.6913 27.0208 21.5095 27.1648 22.4489 27.1648C23.3958 27.1648 24.2045 27.0227 24.875 26.7386C25.5492 26.4508 26.0644 26.0473 26.4205 25.5284C26.7803 25.0057 26.9621 24.3883 26.9659 23.6761C26.9621 23.1913 26.8731 22.7614 26.6989 22.3864C26.5284 22.0114 26.2879 21.6856 25.9773 21.4091C25.6667 21.1326 25.2992 20.8996 24.875 20.7102C24.4508 20.5208 23.9848 20.3693 23.4773 20.2557L22.4318 20.0057C22.178 19.9489 21.9394 19.8807 21.7159 19.8011C21.4924 19.7178 21.2955 19.6212 21.125 19.5114C20.9545 19.3977 20.8201 19.2633 20.7216 19.108C20.6269 18.9527 20.5833 18.7708 20.5909 18.5625C20.5909 18.3125 20.6629 18.089 20.8068 17.892C20.9545 17.6951 21.1667 17.5417 21.4432 17.4318C21.7197 17.3182 22.0587 17.2614 22.4602 17.2614C23.0511 17.2614 23.5189 17.3883 23.8636 17.642Z" fill="#FEEE5B"/>
</svg>
