<svg width="13" height="12" viewBox="0 0 13 12" fill="none" xmlns="http://www.w3.org/2000/svg">
<path d="M1.1967 9.88908C0.806178 10.2796 0.806178 10.9128 1.1967 11.3033C1.58723 11.6938 2.22039 11.6938 2.61092 11.3033L1.1967 9.88908ZM12.0962 1.4038C12.0962 0.851519 11.6485 0.403803 11.0962 0.403803H2.0962C1.54391 0.403803 1.0962 0.851519 1.0962 1.4038C1.0962 1.95609 1.54391 2.4038 2.0962 2.4038H10.0962V10.4038C10.0962 10.9561 10.5439 11.4038 11.0962 11.4038C11.6485 11.4038 12.0962 10.9561 12.0962 10.4038V1.4038ZM2.61092 11.3033L11.8033 2.11091L10.3891 0.696697L1.1967 9.88908L2.61092 11.3033Z" fill="#3D3D3E"/>
</svg>
