<svg width="28" height="30" viewBox="0 0 28 30" fill="none" xmlns="http://www.w3.org/2000/svg">
<path d="M18.5756 12.3259C20.4759 15.6174 21.6242 18.9004 21.9591 21.5343C22.1267 22.8525 22.0874 23.9826 21.8559 24.8613C21.6251 25.7375 21.2154 26.3256 20.6659 26.6429C20.1164 26.9601 19.4022 27.0209 18.528 26.7827C17.6513 26.5438 16.6528 26.0128 15.5951 25.2086C13.4815 23.6016 11.2125 20.9657 9.31215 17.6742C7.41183 14.3828 6.26355 11.0997 5.92865 8.46579C5.76105 7.14768 5.80041 6.01749 6.03188 5.13881C6.26269 4.26265 6.67242 3.67452 7.22192 3.35727C7.77141 3.04002 8.48562 2.97925 9.35979 3.21744C10.2365 3.45631 11.2349 3.98733 12.2927 4.79152C14.4063 6.39854 16.6753 9.03448 18.5756 12.3259Z" stroke="#5BFEFE"/>
<path d="M18.5756 17.6741C16.6753 20.9655 14.4062 23.6015 12.2926 25.2085C11.2349 26.0127 10.2364 26.5437 9.35975 26.7826C8.48558 27.0208 7.77137 26.96 7.22188 26.6428C6.67238 26.3255 6.26265 25.7374 6.03184 24.8612C5.80037 23.9825 5.76101 22.8523 5.92861 21.5342C6.26351 18.9003 7.41179 15.6173 9.31211 12.3258C11.2124 9.03437 13.4815 6.39842 15.5951 4.7914C16.6528 3.98721 17.6513 3.4562 18.5279 3.21732C19.4021 2.97913 20.1163 3.0399 20.6658 3.35715C21.2153 3.6744 21.625 4.26254 21.8559 5.13869C22.0873 6.01737 22.1267 7.14757 21.9591 8.46567C21.6242 11.0996 20.4759 14.3826 18.5756 17.6741Z" stroke="#5BFEFE"/>
<path d="M13.9439 20.3482C10.1433 20.3482 6.72598 19.7011 4.27745 18.6741C3.05214 18.1602 2.09304 17.5611 1.44782 16.9213C0.804456 16.2833 0.499979 15.6344 0.499979 14.9999C0.499979 14.3654 0.804457 13.7165 1.44782 13.0785C2.09304 12.4387 3.05214 11.8395 4.27745 11.3256C6.72598 10.2987 10.1433 9.65161 13.9439 9.65161C17.7446 9.65161 21.1619 10.2987 23.6104 11.3256C24.8357 11.8395 25.7948 12.4387 26.44 13.0785C27.0834 13.7165 27.3879 14.3654 27.3879 14.9999C27.3879 15.6344 27.0834 16.2833 26.44 16.9213C25.7948 17.5611 24.8357 18.1602 23.6104 18.6741C21.1619 19.7011 17.7446 20.3482 13.9439 20.3482Z" stroke="#5BFEFE"/>
<circle cx="14.0294" cy="14.9107" r="2.82513" fill="#5BFEFE"/>
</svg>
