<svg width="30" height="30" viewBox="0 0 30 30" fill="none" xmlns="http://www.w3.org/2000/svg">
<path fill-rule="evenodd" clip-rule="evenodd" d="M5 0C2.23858 0 0 2.23858 0 5V25C0 27.7614 2.23858 30 5 30H25C27.7614 30 30 27.7614 30 25V5C30 2.23858 27.7614 0 25 0H5Z" fill="#0094FF"/>
<path d="M7.56818 16.392V14.3636H17.125V16.392H13.5625V26H11.1307V16.392H7.56818ZM25.0114 17.7102C24.9659 17.2519 24.7708 16.8958 24.4261 16.642C24.0814 16.3883 23.6136 16.2614 23.0227 16.2614C22.6212 16.2614 22.2822 16.3182 22.0057 16.4318C21.7292 16.5417 21.517 16.6951 21.3693 16.892C21.2254 17.089 21.1534 17.3125 21.1534 17.5625C21.1458 17.7708 21.1894 17.9527 21.2841 18.108C21.3826 18.2633 21.517 18.3977 21.6875 18.5114C21.858 18.6212 22.0549 18.7178 22.2784 18.8011C22.5019 18.8807 22.7405 18.9489 22.9943 19.0057L24.0398 19.2557C24.5473 19.3693 25.0133 19.5208 25.4375 19.7102C25.8617 19.8996 26.2292 20.1326 26.5398 20.4091C26.8504 20.6856 27.0909 21.0114 27.2614 21.3864C27.4356 21.7614 27.5246 22.1913 27.5284 22.6761C27.5246 23.3883 27.3428 24.0057 26.983 24.5284C26.6269 25.0473 26.1117 25.4508 25.4375 25.7386C24.767 26.0227 23.9583 26.1648 23.0114 26.1648C22.072 26.1648 21.2538 26.0208 20.5568 25.733C19.8636 25.4451 19.322 25.0189 18.9318 24.4545C18.5455 23.8864 18.3428 23.1837 18.3239 22.3466H20.7045C20.7311 22.7367 20.8428 23.0625 21.0398 23.3239C21.2405 23.5814 21.5076 23.7765 21.8409 23.9091C22.178 24.0379 22.5587 24.1023 22.983 24.1023C23.3996 24.1023 23.7614 24.0417 24.0682 23.9205C24.3788 23.7992 24.6193 23.6307 24.7898 23.4148C24.9602 23.1989 25.0455 22.9508 25.0455 22.6705C25.0455 22.4091 24.9678 22.1894 24.8125 22.0114C24.661 21.8333 24.4375 21.6818 24.142 21.5568C23.8504 21.4318 23.4924 21.3182 23.0682 21.2159L21.8011 20.8977C20.8201 20.6591 20.0455 20.286 19.4773 19.7784C18.9091 19.2708 18.6269 18.5871 18.6307 17.7273C18.6269 17.0227 18.8144 16.4072 19.1932 15.8807C19.5758 15.3542 20.1004 14.9432 20.767 14.6477C21.4337 14.3523 22.1913 14.2045 23.0398 14.2045C23.9034 14.2045 24.6572 14.3523 25.3011 14.6477C25.9489 14.9432 26.4527 15.3542 26.8125 15.8807C27.1723 16.4072 27.358 17.017 27.3693 17.7102H25.0114Z" fill="white"/>
</svg>
