<svg width="100" height="100" viewBox="0 0 100 100" fill="none" xmlns="http://www.w3.org/2000/svg">
<path d="M59.8684 52.7894C59.5409 52.4447 59.1297 52.1908 58.6748 52.0525C58.2199 51.9142 57.7369 51.8962 57.273 52.0003C56.8091 52.1043 56.38 52.3269 56.0278 52.6462C55.6755 52.9656 55.4121 53.3708 55.2632 53.8223C55.0279 54.4596 54.5697 54.9901 53.9734 55.3154C53.377 55.6408 52.683 55.7391 52.0198 55.592C49.0658 54.8552 45.0855 50.9868 44.3487 47.9276C44.1687 47.2622 44.2521 46.553 44.5818 45.9477C44.9114 45.3423 45.4618 44.8874 46.1184 44.6776C46.5617 44.5284 46.9595 44.2685 47.2741 43.9223C47.5886 43.5762 47.8094 43.1554 47.9156 42.6999C48.0217 42.2444 48.0096 41.7693 47.8805 41.3198C47.7513 40.8703 47.5094 40.4612 47.1777 40.1315L43.0461 35.9999C42.5034 35.5011 41.7931 35.2242 41.0559 35.2242C40.3188 35.2242 39.6085 35.5011 39.0658 35.9999L36.2632 38.8157C33.4605 41.7631 36.5592 49.5789 43.5 56.5131C50.4408 63.4473 58.2434 66.6842 61.1908 63.7499L63.9934 60.9473C64.483 60.4065 64.7541 59.7031 64.7541 58.9736C64.7541 58.2442 64.483 57.5407 63.9934 56.9999L59.8684 52.7894Z" fill="white"/>
<path d="M50 0C40.1109 0 30.4439 2.93245 22.2214 8.42652C13.999 13.9206 7.59037 21.7295 3.80598 30.8658C0.0216031 40.0021 -0.968564 50.0555 0.960697 59.7545C2.88996 69.4536 7.652 78.3627 14.6446 85.3553C21.6372 92.348 30.5464 97.11 40.2454 99.0393C49.9445 100.969 59.9978 99.9784 69.1341 96.194C78.2704 92.4096 86.0794 86.001 91.5734 77.7785C97.0675 69.5561 100 59.8891 100 50C100 36.7392 94.7321 24.0215 85.3553 14.6447C75.9785 5.26784 63.2608 0 50 0V0ZM50 76.3158C44.8521 76.3254 39.8164 74.8124 35.5263 71.9671L25.4144 75.2039L28.7039 65.4276C25.8623 61.5009 24.1605 56.8657 23.786 52.0332C23.4115 47.2006 24.379 42.3586 26.5816 38.041C28.7843 33.7234 32.1367 30.098 36.269 27.5647C40.4013 25.0313 45.1529 23.6885 50 23.6842C56.9793 23.6842 63.6729 26.4568 68.608 31.3919C73.5432 36.3271 76.3158 43.0206 76.3158 50C76.3158 56.9794 73.5432 63.6729 68.608 68.6081C63.6729 73.5432 56.9793 76.3158 50 76.3158Z" fill="white"/>
</svg>
