<svg width="20" height="20" viewBox="0 0 20 20" fill="none" xmlns="http://www.w3.org/2000/svg">
<path d="M5.29289 13.4853C4.90237 13.8758 4.90237 14.509 5.29289 14.8995C5.68342 15.29 6.31658 15.29 6.70711 14.8995L5.29289 13.4853ZM16.1924 4.99999C16.1924 4.44771 15.7447 3.99999 15.1924 3.99999H6.19239C5.6401 3.99999 5.19239 4.44771 5.19239 4.99999C5.19239 5.55228 5.6401 5.99999 6.19239 5.99999H14.1924V14C14.1924 14.5523 14.6401 15 15.1924 15C15.7447 15 16.1924 14.5523 16.1924 14V4.99999ZM6.70711 14.8995L15.8995 5.7071L14.4853 4.29289L5.29289 13.4853L6.70711 14.8995Z" fill="white"/>
</svg>
